<svg width="64" height="64" viewBox="0 0 64 64" fill="none" xmlns="http://www.w3.org/2000/svg">
<path d="M44.345 44.055C39.845 53.255 31.965 59.445 21.54 61.48C19.9416 61.8716 18.3007 62.0631 16.655 62.05C10.655 62.05 5.155 59.55 2.485 55.455C-1.1 50 -2.32 38.435 9.5 29.88C9.74 31.185 10.23 32.975 10.555 34.035C8.23466 35.7588 6.33538 37.9863 5 40.55C2.8 44.87 3.045 49.185 5.65 53.175C7.45 55.865 10.3 57.5 13.965 58C18.5427 58.5794 23.1867 57.7048 27.24 55.5C33.595 52.16 37.83 48.17 40.6 42.715C39.8167 41.9056 39.3531 40.8398 39.295 39.715C39.2531 38.5079 39.6919 37.3336 40.5149 36.4496C41.3379 35.5656 42.478 35.0443 43.685 35H43.855C45.029 34.9941 46.1603 35.4398 47.0149 36.2447C47.8694 37.0497 48.3818 38.1524 48.4461 39.3246C48.5103 40.4969 48.1214 41.6489 47.3599 42.5425C46.5984 43.436 45.5226 44.0026 44.355 44.125L44.345 44.055ZM58.68 33.955C64.785 40.875 64.95 49.02 62.59 53.745C60.39 58.06 54.59 62.38 46.79 62.38C43.1488 62.3057 39.5668 61.4443 36.29 59.855C37.435 59.04 39.06 57.735 39.955 56.92C42.4819 58.0147 45.2013 58.596 47.955 58.63C53.005 58.63 56.83 56.27 59.11 51.955C60.575 49.105 60.66 45.765 59.275 42.345C57.5755 38.0419 54.5514 34.3909 50.64 31.92C45.5083 28.4607 39.4587 26.6166 33.27 26.625H31.805C31.4634 27.4141 30.9076 28.0918 30.2007 28.5814C29.4938 29.071 28.6639 29.3528 27.805 29.395H27.65C26.4621 29.3804 25.3266 28.9033 24.4849 28.065C23.6431 27.2267 23.1612 26.0932 23.1417 24.9054C23.1222 23.7175 23.5665 22.5689 24.3803 21.7033C25.1941 20.8378 26.3132 20.3236 27.5 20.27H27.665C28.492 20.2706 29.3029 20.4991 30.0085 20.9305C30.7142 21.3618 31.2873 21.9792 31.665 22.715H32.97C43.37 22.715 52.5 26.705 58.68 33.955ZM17.305 45.455C17.2194 44.6247 17.4205 43.7901 17.875 43.09C13.315 35.19 10.875 25.175 14.62 14.75C17.305 6.915 24.065 1.62 31.395 1.62C39.215 1.62 47.36 8.465 48.335 21.655C47.115 21.25 45.335 20.655 44.265 20.435C44 16.12 40.355 5.37 31.72 5.53C28.625 5.615 24.065 7.08 21.72 10.09C18.8193 13.6831 17.1319 18.103 16.9 22.715C16.3504 29.0389 17.8341 35.3731 21.135 40.795C21.3172 40.7284 21.5115 40.7012 21.705 40.715H21.865C23.0744 40.6931 24.2429 41.1526 25.1136 41.9923C25.9842 42.8319 26.4856 43.9831 26.5075 45.1925C26.5294 46.4019 26.0699 47.5704 25.2302 48.4411C24.3905 49.3117 23.2394 49.8131 22.03 49.835H21.865C20.6852 49.8308 19.5524 49.3715 18.7029 48.5527C17.8534 47.7339 17.3526 46.6189 17.305 45.44V45.455Z" fill="white"/>
</svg>
