<svg width="64" height="64" viewBox="0 0 64 64" fill="none" xmlns="http://www.w3.org/2000/svg">
<path d="M4.38 0.5L9.4075 56.9415L31.9665 63.2315L54.5885 56.9185L59.62 0.5H4.38ZM49.1755 13.431L47.502 32.2335L47.507 32.335L47.5 32.5685V32.5665L46.311 45.7135L46.18 46.8815L32 50.8035V50.804L31.989 50.8135L17.8335 46.8695L16.875 36H23.8165L24.309 41.527L32.002 43.612L32 43.616V43.615L39.7215 41.5005L40.5375 32.5H24.396L24.2575 30.9785L23.942 27.414L23.7765 25.5H41.151L41.783 18.5H15.32L15.1815 16.9795L14.8665 13.414L14.7005 11.5H49.341L49.1755 13.431Z" fill="white"/>
</svg>
