<svg width="64" height="64" viewBox="0 0 64 64" fill="none" xmlns="http://www.w3.org/2000/svg">
<path d="M56.339 15.167L34.2675 2.36451C32.877 1.57251 31.0555 1.57251 29.654 2.36451L7.41 15.167C5.9755 15.9925 5 17.544 5 19.2035V44.7745C5 46.434 5.996 47.986 7.431 48.816L13.2955 52.16C16.109 53.546 16.8885 53.546 18.1685 53.546C22.3355 53.546 24.4995 51.0265 24.4995 46.632V21.387C24.5 21.0305 24.7225 20.5 24.372 20.5H21.561C21.205 20.5 20.5 21.0305 20.5 21.3865V46.6315C20.5 48.5795 18.692 50.518 15.399 48.8715L9.338 45.365C9.127 45.25 9 45.0185 9 44.7745V19.2035C9 18.9625 9.2315 18.7205 9.4455 18.597L31.6345 5.81651C31.842 5.69901 32.1355 5.69901 32.342 5.81651L54.3235 18.594C54.534 18.7205 54.5005 18.955 54.5005 19.2035V44.7745C54.5005 45.0185 54.5465 45.256 54.339 45.3735L32.2725 58.1615C32.0835 58.275 31.8375 58.275 31.63 58.1615L25.9715 54.787C25.801 54.688 25.5955 54.6525 25.4315 54.744C23.859 55.6355 23.567 55.754 22.092 56.2655C21.7285 56.392 21.1925 56.6115 22.296 57.23L29.695 61.607C30.403 62.017 31.2085 62.23 32.0185 62.23C32.8395 62.23 33.643 62.017 34.3515 61.607L56.3395 48.816C57.775 47.98 58.5005 46.434 58.5005 44.7745V19.2035C58.5 17.544 57.7745 15.9965 56.339 15.167ZM38.8635 40.7225C33 40.7225 31.709 39.105 31.2785 36.1895C31.2275 35.8755 30.9615 35.5 30.6415 35.5H27.7765C27.422 35.5 27.1365 35.93 27.1365 36.283C27.1365 40.016 29.1665 44.539 38.8635 44.539C45.8825 44.539 49.9075 41.8115 49.9075 36.9845C49.9075 32.1985 46.674 30.9425 39.8665 30.0415C32.9855 29.132 32.2865 28.6725 32.2865 27.0605C32.2865 25.7315 32.8785 23.959 37.9735 23.959C42.5255 23.959 44.2035 24.936 44.894 28.0045C44.9535 28.293 45.217 28.5 45.5145 28.5H48.3915C48.5685 28.5 48.737 28.4285 48.861 28.302C48.9815 28.166 49.0445 27.9955 49.029 27.8125C48.5825 22.528 45.0725 20.0655 37.973 20.0655C31.657 20.0655 27.89 22.7325 27.89 27.203C27.89 32.052 31.6385 33.392 37.701 33.9915C44.9535 34.7025 45.5175 35.7625 45.5175 37.189C45.5175 39.667 43.5285 40.7225 38.8635 40.7225Z" fill="white"/>
</svg>
