<svg width="64" height="64" viewBox="0 0 64 64" fill="none" xmlns="http://www.w3.org/2000/svg">
<path fill-rule="evenodd" clip-rule="evenodd" d="M45.2455 28.641C45.0605 26.246 44.4975 23.9365 43.7145 21.674C42.0925 16.622 39.4895 12.151 35.823 8.30403C34.896 7.33103 33.865 6.43953 33.2185 5.22853C32.8095 4.46253 32.42 3.68603 32.0215 2.91403L31.769 2.27753C31.7265 2.42353 31.6995 2.47553 31.698 2.52803C31.6655 3.78653 30.9525 4.64003 30.0645 5.43653C29.066 6.33303 28.1365 7.30603 27.177 8.24553C26.193 9.53953 25.2095 10.8335 24.2265 12.127C23.4305 13.5895 22.6355 15.052 21.8405 16.5145L20.2455 20.823L20.1975 20.89C19.3195 23.774 18.8865 26.739 18.6735 29.734C18.5935 30.8595 18.6845 32.0015 18.748 33.133C18.8385 34.7505 19.1195 36.3405 19.541 37.9055C21.072 43.5915 24.179 48.308 28.4265 52.315C29.216 53.0595 30.026 53.7365 30.85 54.445C30.991 53.9625 31.1035 53.48 31.2315 52.9975C31.3595 52.517 31.489 52.039 31.5755 51.557C31.4885 52.039 31.391 52.517 31.2945 52.9975L30.8815 54.445L31.2505 55.6955L31.5925 57.6375L31.7555 59.664C31.754 60.0755 31.7375 60.488 31.7625 60.899C31.7685 61.004 31.9065 61.101 31.9835 61.202L32.6715 61.4435L33.3885 61.7225L33.2655 59.921L33.26 58.147L33.5075 55.4445L33.687 54.856L34.2005 53.946C34.8345 53.436 35.515 52.973 36.0925 52.4055C37.1375 51.3785 38.18 50.3385 39.115 49.214C40.3285 47.7555 41.3725 46.1635 42.2105 44.456C42.7715 43.314 43.2995 42.149 43.7365 40.9555C44.1215 39.9035 44.36 38.798 44.6635 37.716C44.6905 37.638 44.7265 37.5615 44.7435 37.482C45.3705 34.5615 45.476 31.6115 45.2455 28.641ZM33.446 53.3285L33.0435 52.447L33.446 53.3285L34.0375 53.8335L33.446 53.3285Z" fill="white"/>
</svg>
