<svg width="128" height="128" viewBox="0 0 128 128" fill="none" xmlns="http://www.w3.org/2000/svg">
<path d="M11.7106 0.0908203C5.29067 0.0908203 0.0907822 5.29071 0.0907822 11.7107V116.289C0.0907822 122.709 5.29067 127.909 11.7106 127.909H116.289C122.709 127.909 127.909 122.709 127.909 116.289V11.7107C127.909 5.29071 122.709 0.0908203 116.289 0.0908203H11.7106ZM78.5248 40.7603H93.3787C94.9823 40.7603 96.2837 42.0617 96.2837 43.6653C96.2837 45.2688 94.9823 46.5703 93.3787 46.5703H78.5248C76.9213 46.5703 75.6199 45.2688 75.6199 43.6653C75.6199 42.0617 76.9213 40.7603 78.5248 40.7603ZM28.6752 42.9958H44.8567C54.4083 42.9958 60.1078 47.6686 60.1078 55.2738C60.1078 60.4911 56.2488 65.0435 51.2 65.793V66.4057C57.7187 66.8821 62.4567 71.7946 62.4567 78.1391C62.4625 86.7668 55.9456 92.2327 45.4355 92.2327H28.6752C25.7237 92.2327 23.3305 89.8394 23.3305 86.888V48.3405C23.3305 45.389 25.7237 42.9958 28.6752 42.9958ZM33.634 50.871V63.3986H41.3731C46.939 63.4044 49.9745 61.1141 49.9745 57.1575C49.9745 53.2358 47.1507 50.871 42.2355 50.871H33.634ZM87.0241 53.7759C98.1153 53.7759 104.658 60.8436 104.658 72.783V75.8128H78.8426V76.3234C78.9762 81.9184 82.2557 85.4015 87.444 85.4015C91.3657 85.4015 94.0575 84.0073 95.1149 81.5206H104.363C102.864 88.6203 96.3748 93.0497 87.1603 93.0497C75.6973 93.0497 68.9475 85.8125 68.9475 73.6C68.9475 61.3527 75.8342 53.7759 87.0241 53.7759ZM87.0695 61.3901C82.4622 61.3901 79.2136 64.5892 78.8766 69.4695H94.9106C94.7015 64.4904 91.7058 61.3901 87.0695 61.3901ZM33.634 70.366V84.3575H42.8142C48.7519 84.3575 51.9603 81.8554 51.9603 77.2539C51.9603 72.7454 48.6473 70.366 42.5759 70.366H33.634Z" fill="#8F034F"/>
</svg>
