<svg width="131" height="128" viewBox="0 0 131 128" fill="none" xmlns="http://www.w3.org/2000/svg">
<path d="M65.7368 0.736816C29.8384 0.736816 0.736847 29.7993 0.736847 65.6196C0.736847 94.2915 19.3697 118.627 45.19 127.221C48.4322 127.807 50.7368 124.487 50.7368 121.987C50.7368 120.463 50.7759 118.627 50.7368 113.237C32.6509 117.143 26.9868 104.487 26.9868 104.487C24.0181 96.9868 20.4243 94.8384 20.4243 94.8384C14.5259 90.815 20.854 90.9321 20.854 90.9321C27.3775 91.3618 30.7368 96.9868 30.7368 96.9868C35.7368 105.737 47.0259 104.877 50.7368 103.237C50.7368 99.2525 51.1665 96.3618 52.2603 94.5259C31.8306 90.9321 20.6978 79.1353 20.7368 62.8071C20.7759 53.1587 24.0962 45.6587 29.4868 40.1118C27.1431 37.1431 25.5415 26.9868 30.3462 20.7368C42.4165 20.7368 49.604 29.4478 49.604 29.4478C49.604 29.4478 55.2681 26.9868 65.6978 26.9868C76.1665 26.9868 81.7915 29.3306 81.7915 29.3306C81.7915 29.3306 89.0181 20.7368 101.088 20.7368C105.893 26.9868 104.292 37.1431 102.417 39.9165C107.573 45.3462 110.737 52.8462 110.737 62.8071C110.737 79.1353 99.6431 90.9321 79.2525 94.4868C80.5415 96.44 80.7368 99.1743 80.7368 103.237C80.7368 111.909 80.7368 119.838 80.7368 121.987C80.7368 124.487 83.0025 127.846 86.3228 127.221C112.143 118.588 130.737 94.2915 130.737 65.6196C130.737 29.7993 101.635 0.736816 65.7368 0.736816Z" fill="#8F034F"/>
</svg>
