<svg width="128" height="128" viewBox="0 0 128 128" fill="none" xmlns="http://www.w3.org/2000/svg">
<path d="M116.289 0.0908203H11.7106C5.29066 0.0908203 0.0907745 5.29071 0.0907745 11.7107V116.289C0.0907745 122.709 5.29066 127.909 11.7106 127.909H116.289C122.709 127.909 127.909 122.709 127.909 116.289V11.7107C127.909 5.29071 122.709 0.0908203 116.289 0.0908203ZM40.493 104.67H23.3537V49.5217H40.493V104.67ZM31.7491 41.6376C26.2238 41.6376 21.756 37.1582 21.756 31.6445C21.756 26.1309 26.2296 21.6573 31.7491 21.6573C37.2569 21.6573 41.7363 26.1367 41.7363 31.6445C41.7363 37.1582 37.2569 41.6376 31.7491 41.6376ZM104.693 104.67H87.5651V77.8509C87.5651 71.4542 87.4489 63.2273 78.6584 63.2273C69.7402 63.2273 68.3691 70.1934 68.3691 77.3861V104.67H51.2414V49.5217H67.6835V57.0572H67.9159C70.205 52.723 75.7942 48.1506 84.1314 48.1506C101.486 48.1506 104.693 59.5729 104.693 74.4231V104.67Z" fill="#8F034F"/>
</svg>
